Patient4_TMGait_0pt4_01_right_12_EMG.mot
version=1
nRows=30
nColumns=33
inDegrees=no
endheader
time	1LAddLong	2LGlutMax	3LGlutMed	4LIliopsoas	5LSemiMemb	6LBicFemLong	7LRecFem	8LVastMed	9LVastLat	10LGasMed	11LTibAnt	12lTibPost	13LPeroneusLong	14LSol	15LExtDigLong	16LFlexDigLong	17RAddLong	18RGlutMax	19RGlutMed	20RIliopsoas	21RSemiMemb	22RBicFemLong	23RRecFem	24RVastMed	25RVastLat	26RGasMed	27RTibAnt	28RTibPost	29RPeroneusLong	30RSol	31RExtDigLong	32RFlexDigLong
15.29	0.006866	-0.007019	-0.013428	0.023041	0.054016	0.072327	-0.037384	-0.004883	0.031128	-0.016327	0.21149	-0.004425	-0.095978	-0.026855	0.37781	-0.009613	-0.14389	-0.11231	-0.25879	0.14481	0.075073	-0.015259	0.072784	-0.072327	-0.006409	-0.011444	0.15213	-0.001984	0.039368	-0.002136	-0.001068	-0.006714
15.291	0.002441	-0.001984	-0.078888	0.010529	0.042114	0.043488	-0.053406	-0.004578	0.034332	-0.06485	0.29938	-0.001068	-0.055389	0.11444	-0.19073	-0.009918	-0.18372	-0.13748	-0.081787	0.058594	0.072632	-0.021515	0.006714	-0.074005	-0.010834	-0.00824	0.063171	-0.010529	0.077057	-0.076447	-0.002289	-0.004272
15.292	0.00061	0.032043	0.12024	0.01297	0.019989	-0.13275	-0.010834	0.007324	0.085602	-0.062561	0.017548	-0.000458	-0.005341	0.19073	-0.16129	-0.013123	-0.18692	-0.059052	0.27527	0.011749	0.079651	-0.015564	0.028229	-0.06424	-0.007172	-0.002441	-0.029755	-0.002441	0.13336	-0.087128	-0.001221	0.000153
15.293	-0.001831	0.044556	0.14816	-0.00946	0.007629	-0.15717	-0.025177	0.005035	0.095673	0.00824	-0.17914	0.006256	0.045776	0.14923	-0.25925	-0.010223	-0.14191	-0.065765	0.457	-0.087585	0.088196	0.014648	0.029449	-0.047455	-0.001831	-0.003357	-0.052185	-0.002136	0.16556	-0.068054	-0.002289	0.003815
15.294	-0.001068	0.010376	0.11246	-0.002747	-0.016785	-0.096588	0.025635	0.010986	0.10147	-0.00351	-0.12177	0.01358	0.021362	0.10986	-0.032043	0.001984	-0.10284	-0.092163	0.44006	-0.16495	0.098267	0.014343	0.050049	0.004578	0.024872	-0.00412	0	-0.007172	0.20477	-0.057983	-0.00061	0.001526
15.295	-0.005951	0.015564	0.071564	0.008545	-0.003815	0.020905	0.031433	-0.002899	0.081635	0.03418	-0.002136	0.006561	-0.026093	0.12283	-0.068054	-0.020142	-0.067749	-0.095367	0.49301	-0.11643	0.10391	-0.007629	0.065918	-0.036926	0.031433	-0.016632	0.025024	-0.001068	0.10788	-0.059357	-0.002747	0.007324
15.296	-0.016327	0.031281	0.1474	-0.000916	-0.002594	-0.032043	0.057831	-0.011597	0.048065	-0.001984	0.054779	0.006409	-0.045471	0.13214	0.47501	0.006561	-0.037537	-0.081482	0.26611	-0.051422	0.096283	-0.000305	0.12405	0.006256	0.03006	-0.005798	-0.097046	-0.002441	-0.5481	-0.095215	-0.002441	-0.001221
15.297	-0.000458	0.032349	0.023956	-0.010681	-0.05188	-0.00061	0.066071	-0.000763	0.049591	-0.038452	0.069275	0.005188	-0.038757	0.11795	-0.16937	0.022736	-0.010071	-0.086975	-0.090485	0.012817	0.086517	-0.016174	0.14099	0.02121	0.040436	0.003967	0.018005	-0.002899	-0.8403	-0.12604	-0.003967	0.005188
15.298	0.011292	0.036926	0.028534	-0.023804	-0.071106	0.048676	0.04837	-0.00351	0.075684	-0.050354	0.056	0.009613	0.026245	0.10117	0.23102	0.014038	0.055542	-0.081482	-0.007324	0.10773	0.083313	-0.021667	0.168	0.040283	0.033722	0.013885	0.28931	-0.003204	-0.062256	-0.15762	-0.007935	0.003967
15.299	0.007477	0.051117	0.11093	-0.010071	0.010223	0.039978	0.038757	-0.002594	0.15213	-0.041046	0.038605	0.017548	0.01297	0.067139	-0.59509	0.008087	0.063477	-0.075836	-0.008087	0.18845	0.074463	-0.035095	0.12436	-0.018005	0.028534	0.008698	0.12894	-0.002747	0.14542	-0.13672	-0.002441	0.008087
15.3	0.010071	0.044708	0.12878	0.005646	0.11612	0.019684	0.015869	0.00824	0.085602	-0.001831	0.076141	0.009308	0.012665	0.10788	-0.42206	-0.000916	0.036163	-0.10712	-0.21988	0.094757	0.065155	-0.013428	0.059662	-0.041656	0.02243	-0.004425	0.42602	-0.002136	0.03891	-0.035706	-0.001221	0.005493
15.301	0.005646	0.06485	0.19516	0.010223	0.059509	0.005493	0.029602	0.006104	0.053864	-0.005341	0.04715	0.010529	0.086212	0.1358	-0.036926	0.003357	0.014343	-0.066833	-0.041351	-0.023956	0.062866	-0.040436	0.061493	-0.070496	0.018616	-0.005341	0.28671	-0.001831	0.028381	-0.042114	0.007019	0.004883
15.302	-0.001068	0.083618	0.15884	0.014038	0.013428	0.019379	0.022125	0.007477	0.026703	0.016174	-0.063019	0.010681	0.16449	0.099792	-0.24658	-0.019989	-0.00885	-0.06012	-0.097656	0.046082	0.052185	-0.045471	0.11643	-0.06897	0.022888	-0.004578	-0.54352	-0.003357	0.068359	-0.006409	-0.005341	0.004578
15.303	0.007477	0.095825	0.061646	-0.002594	0.023499	0.025482	0.00412	-0.001068	0.049133	0.052338	-0.1091	0.013123	0.16632	-0.092316	-0.46722	-0.000458	-0.024719	-0.10346	0.007324	-0.0177	0.046997	-0.061951	0.15198	-0.12161	0.007782	-0.001984	-0.51254	-0.005493	0.066833	0.03891	-0.002747	0.00412
15.304	-0.000916	0.096741	-0.007782	-0.002136	0.035858	0.017242	0.018616	-0.019073	-0.00946	0.024872	-0.051422	0.015717	-0.11551	-0.078125	-0.23453	0.002136	-0.020905	-0.054016	0.058136	-0.028076	0.049286	-0.06134	0.16846	-0.0914	0.010071	-0.001831	-0.38681	-0.001984	0.018311	0.016937	-0.002136	-0.000305
15.305	0.001984	0.099792	-0.085449	-0.002136	-0.000305	0.00885	0.018311	-0.013275	-0.03479	-0.044861	-0.005188	0.018768	0.13657	0.078278	-0.066223	0.007324	-0.014343	-0.092163	0.1767	-0.022583	0.048828	-0.047607	0.15747	-0.14618	-0.005035	-0.001373	0.10666	-0.003967	0.050507	-0.001068	-0.001984	-0.004272
15.306	0.005188	0.06424	-0.15488	-0.015564	-0.047607	-0.027618	0.035858	0.016327	-0.036621	-0.06958	-0.015106	0.012512	-0.11383	0.10086	0.062408	0.011902	-0.007782	-0.12329	0.34088	-0.097656	0.055237	-0.045013	0.1712	-0.13107	0.010071	0.000305	0.38467	-0.002594	0.093079	0.019989	-0.001526	-0.005798
15.307	-0.002594	0.068359	-0.075073	-0.011444	-0.042114	-0.08606	0.056305	0.005646	-0.042114	-0.050049	-0.003815	0.012512	-0.20218	0.041199	0.11963	0.006714	0.001068	-0.15701	0.19089	-0.18616	0.048828	-0.023651	0.15564	-0.11246	0.000763	-0.010071	-0.08606	0	0.012665	0.052795	-0.001984	-0.005493
15.308	0.005798	0.047913	-0.029297	-0.011139	0.06134	-0.095215	0.052643	0.012512	-0.037384	-0.016785	0.014191	0.014954	-0.30838	0.040894	0.14267	0.011292	0.004272	-0.097961	-0.17532	-0.16464	0.051422	-0.036621	0.1355	-0.10651	0.010834	-0.001221	-0.15549	-0.00473	-0.21255	0.06958	-0.00061	-0.003052
15.309	0.001526	0.052338	0.061951	-0.004883	0.11368	-0.0383	0.048523	0.019073	0.0177	-0.006409	0.026855	0.01236	-0.29923	0.067902	0.1062	-0.080261	0.006256	-0.055542	-0.21347	-0.044861	0.040283	-0.046997	0.1091	-0.09903	0.026398	0.003204	-0.3035	-0.001526	-0.17868	0.034943	-0.004883	0.00473
15.31	0.02655	0.062256	0.059814	-0.02182	0.070496	0.064392	0.022888	0.009918	0.1236	0.028229	0.007019	0.014954	0.12558	0.018005	0.085602	0.027466	0.015869	-0.09201	-0.09201	0.13825	0.053558	-0.065765	0.043945	-0.078583	0.016785	0.001831	-0.40649	-0.002594	-0.055389	0.096741	-0.003662	0.004272
15.311	0.020752	0.10391	0.019226	-0.016479	0.05188	0.069427	-0.051422	0.017242	0.077667	0.023499	-0.12283	0.006714	0.16251	-0.035706	0.47638	0.01236	0.009613	-0.084076	0.017242	0.4184	0.043182	-0.062103	0.048218	-0.11276	0.004425	-0.005798	-0.20477	-0.005341	0.27985	0.0737	0.002747	-0.007935
15.312	0.009003	0.084839	-0.01236	-0.014343	0.034485	-0.004425	-0.1033	-0.016937	0.06546	0.00351	-0.004425	0.009613	0.13977	0.020142	-0.051727	0.015564	0.008087	-0.064087	0.14236	0.32349	0.04303	-0.050659	0.00061	-0.090179	0.005188	-0.001221	-0.03479	-0.003052	0.3035	-0.050964	-0.002747	0.004425
15.313	-0.000458	0.098877	0.000916	0.005798	0.026855	0.012054	-0.073547	0.03418	0.010986	-0.003967	0.079803	0.01709	0.28549	0.020294	0.15137	0.007324	0.015717	-0.014343	0.32059	0.19653	0.022736	-0.066986	-0.025024	-0.098267	-0.017548	-0.003052	0.10819	0.001373	0.009766	-0.064697	-0.002594	0.001373
15.314	0.001373	0.1207	0.02594	0.01236	0.033722	0.008392	-0.005798	0.018311	-0.051575	0.017853	0.10971	0.011749	0.30289	-0.009308	0.063934	0.008545	0.018768	-0.000153	0.47669	0.098267	0.0177	-0.071716	-0.017395	-0.090332	0.012512	-0.003357	-0.036011	-0.001678	0.17487	-0.06485	0.000305	-0.00473
15.315	-0.007782	0.14664	-0.005035	-0.001678	0.020905	-0.043182	0.025482	0.005493	-0.009918	-0.009766	0.083618	0.011444	-0.23239	0.077515	0.019989	0.011292	0.014343	-0.032196	0.26703	0.027618	0.014954	-0.077972	-0.029449	-0.074921	0.001221	-0.007324	-0.40085	-0.000458	0.03067	-0.084534	-0.003662	-0.002747
15.316	-0.001068	0.12573	0.055542	0.010529	0.02182	-0.012054	0.022736	0.00473	0.00824	-0.004578	0.066833	0.017242	-0.24506	0.10025	-0.082703	-0.026703	0.014648	-0.1088	0.10681	0.006866	0.011902	-0.069122	-0.005341	-0.062714	-0.008545	-0.001373	-0.64728	-0.003662	-0.063782	-0.11917	-0.00412	-0.001831
15.317	0.000458	0.11734	0.098572	0.003815	0.013275	0.062714	0.024109	0.012207	0.019226	-0.000916	-0.011139	0.000153	-0.14191	0.002899	-0.15518	0.016327	0.009155	-0.07431	0.13123	-0.010529	-0.008698	-0.082245	0.029602	-0.1004	-0.007477	0.002899	-0.039215	-0.002441	-0.24933	-0.17044	-0.00061	0.000763
15.318	-0.016022	0.10132	0.079498	0.013733	0.001221	0.11475	0.019684	0.016327	0.022125	-0.020905	-0.066681	0.013428	-0.16464	0.000153	0.003662	0.002441	0.013123	-0.071564	0.087738	0.023956	0.006409	-0.071106	0.011902	-0.11002	-0.018768	-0.002899	0.18494	-0.001831	0.048676	-0.17075	-0.002289	-0.002289
15.319	-0.011292	0.11093	0.03479	0.00412	-0.03891	0.15778	0.041504	0.047607	0.016937	-0.038757	-0.054626	0.01236	0.16205	0.071564	0.12024	0.006409	0.006409	-0.078125	-0.072021	0.02243	0.002441	-0.055695	-0.048676	-0.10437	-0.025787	-0.00824	0.03006	-0.009155	0.57999	-0.072479	-0.001831	-0.004578
